<?xml version="1.0" encoding="UTF-8" standalone="no"?>
<svg
   viewBox="0 0 400 399.99999"
   height="400"
   width="400"
   xml:space="preserve"
   id="svg2"
   version="1.1"
   sodipodi:docname="white.svg"
   inkscape:version="1.2.2 (732a01da63, 2022-12-09)"
   xmlns:inkscape="http://www.inkscape.org/namespaces/inkscape"
   xmlns:sodipodi="http://sodipodi.sourceforge.net/DTD/sodipodi-0.dtd"
   xmlns="http://www.w3.org/2000/svg"
   xmlns:svg="http://www.w3.org/2000/svg"
   xmlns:rdf="http://www.w3.org/1999/02/22-rdf-syntax-ns#"
   xmlns:cc="http://creativecommons.org/ns#"
   xmlns:dc="http://purl.org/dc/elements/1.1/"><sodipodi:namedview
     id="namedview89"
     pagecolor="#ffffff"
     bordercolor="#000000"
     borderopacity="0.25"
     inkscape:showpageshadow="2"
     inkscape:pageopacity="0.0"
     inkscape:pagecheckerboard="0"
     inkscape:deskcolor="#d1d1d1"
     showgrid="false"
     inkscape:zoom="0.72515414"
     inkscape:cx="244.77555"
     inkscape:cy="235.81194"
     inkscape:window-width="1920"
     inkscape:window-height="1017"
     inkscape:window-x="-8"
     inkscape:window-y="-8"
     inkscape:window-maximized="1"
     inkscape:current-layer="svg2" /><metadata
     id="metadata8"><rdf:RDF><cc:Work
         rdf:about=""><dc:format>image/svg+xml</dc:format><dc:type
           rdf:resource="http://purl.org/dc/dcmitype/StillImage" /></cc:Work></rdf:RDF></metadata><defs
     id="defs6"><clipPath
       id="clipPath20"
       clipPathUnits="userSpaceOnUse"><path
         id="path18"
         d="M 0,841.89 H 595.276 V 0 H 0 Z" /></clipPath></defs><g
     transform="matrix(1.1919967,0,0,-1.1919967,-151.00663,696.69459)"
     id="g10"><g
       id="g14"><g
         clip-path="url(#clipPath20)"
         id="g16"><g
           transform="translate(204.2231,338.4493)"
           id="g22"><path
             id="path24"
             style="fill:#ffffff;fill-opacity:1;fill-rule:nonzero;stroke:none"
             d="m 0,0 c 6.49,0.698 11.05,4.724 11.229,11.801 0.14,5.586 -3.071,9.776 -8.92,12.685 4.11,1.538 6.895,4.955 6.956,9.952 0.136,11.192 -8.88,18.329 -19.266,20.643 -5.381,1.199 -7.422,1.074 -8.505,1.111 -0.749,0.026 -1.338,0.019 -1.348,-0.278 -0.215,-6.097 -0.321,-9.144 -0.536,-15.242 -0.082,-2.379 -0.075,-4.557 -0.138,-6.34 -0.243,-5.969 -0.365,-8.954 -0.607,-14.924 -0.095,-2.678 -0.142,-4.015 -0.235,-6.692 -0.046,-1.264 -0.32,-4.272 -0.417,-7.023 -0.028,-0.816 0.729,-1 1.899,-1.576 C -15.116,1.942 -6.41,-0.69 0,0 m -9.295,43.017 c 0.004,0.119 0.006,0.178 0.01,0.297 0.673,0.004 1.343,-0.065 2.18,-0.242 2.341,-0.495 5.468,-2.994 5.299,-8.726 -0.123,-4.169 -3.23,-6.249 -6.84,-5.479 -0.437,0.095 -0.654,0.141 -1.09,0.236 0.175,5.565 0.265,8.347 0.441,13.914 m 2.231,-31.412 c -1.013,0.213 -2.106,0.594 -3.114,0.96 0.073,2.233 0.108,3.349 0.177,5.581 0.043,1.28 0.063,1.92 0.103,3.2 1.011,-0.144 2.023,-0.284 3.117,-0.513 4.293,-0.897 6.624,-2.536 6.524,-6.035 -0.096,-3.35 -3.178,-3.952 -6.807,-3.193 M 50.29,-0.839 c 3.67,5.118 4.158,11.911 4.21,14.653 0.164,8.617 0.223,19.514 -5.429,26.772 -2.995,3.848 -6.089,5.876 -12.238,6.608 -7.414,0.885 -11.164,-2.026 -13.687,-4.603 -5.504,-5.623 -6.311,-16.729 -6.399,-24.22 -0.082,-7.152 1.745,-15.362 7.13,-20.602 2.518,-2.307 6.939,-4.245 9.251,-4.533 10.698,-1.337 14.195,1.787 17.162,5.925 M 35.557,4.298 c -5.974,0.719 -7.447,6.812 -7.36,12.38 0.096,6.058 1.418,19.932 7.927,19.242 C 42.54,35.24 43.583,21.084 43.335,14.857 43.145,10.055 41.018,3.642 35.557,4.298 M 83.125,-7.123 c 1.453,-2.277 2.226,-2.815 3.431,-2.836 1.204,-0.021 3.105,0.77 5.597,1.502 1.978,0.583 2.449,0.797 3.611,1.408 0.939,0.492 1.291,0.975 1.291,1.422 -0.001,0.373 -0.174,0.672 -0.344,0.895 -0.43,0.746 -4.808,5.235 -5.493,6.211 -0.343,0.676 -3.51,4.589 -6.151,8.152 6.658,2.83 10.026,12.461 9.758,18.932 -0.029,0.716 -0.085,1.868 -0.085,2.316 0,2.181 0,3.268 0.002,5.449 -0.034,1.912 -0.051,2.867 -0.084,4.779 0,0.895 -0.254,1.641 -0.847,1.867 -1.101,0.452 -10.163,0.509 -10.168,-0.984 -0.012,-3.284 -0.019,-4.926 -0.031,-8.21 -0.005,-1.643 0.073,-3.662 0.063,-6.573 -0.026,-7.241 -3.024,-9.872 -7.802,-9.686 -0.684,0.028 -1.537,0.063 -2.474,0.178 0.039,5.853 0.058,8.779 0.096,14.631 0.012,1.715 -0.057,4.184 -0.054,4.631 0.012,1.852 0.019,2.778 0.031,4.629 0.007,0.896 -0.243,1.652 -0.834,1.904 -0.844,0.411 -3.252,0.418 -4.737,0.466 -2.231,0.068 -5.415,0.105 -5.422,-0.565 C 62.395,35.035 62.31,26.677 62.228,18.316 62.204,15.929 62.266,13.759 62.25,11.967 62.234,10.551 62.136,9.138 62.121,7.719 62.091,4.645 62.076,3.106 62.045,0.032 c -0.012,-1.269 -0.214,-4.317 -0.243,-7.078 -0.015,-1.567 2.911,-1.316 5.832,-1.476 1.291,-0.073 2.493,-0.284 3.87,-0.35 1.031,-0.049 1.424,-0.105 1.641,1.119 0.215,1.214 0.254,12.609 0.266,14.4 0.006,0.866 0.008,1.299 0.015,2.166 0.341,-0.046 0.513,-0.068 0.854,-0.112 2.796,-4.524 4.833,-8.414 5.263,-9.079 0.49,-0.758 3.067,-5.987 3.582,-6.745 m 31.74,12.776 c 1.113,-0.108 2.248,-0.15 3.255,-0.088 9.717,0.613 17.625,9.859 17.659,19.496 0.037,11.434 -10.232,19.384 -21.055,19.039 -6.724,-0.216 -8.806,-0.871 -9.904,-1.111 -0.759,-0.167 -1.354,-0.322 -1.354,-0.621 l 0.063,-25.086 c 0.005,-2.387 0.096,-4.553 0.101,-6.344 0.003,-1.417 -0.079,-2.837 -0.076,-4.257 0.009,-3.077 0.012,-4.614 0.019,-7.691 0.004,-1.266 -0.16,-4.332 -0.154,-7.093 0.003,-1.567 2.928,-1.073 5.853,-0.992 1.291,0.036 2.496,-0.076 3.873,-0.026 1.032,0.035 1.412,0.001 1.627,1.254 0.187,1.096 0.113,10.234 0.093,13.52 m -0.24,26.571 c -0.001,0.179 -0.001,0.268 -0.003,0.447 0.509,0.095 0.848,0.108 1.188,0.122 5.69,0.236 8.776,-2.994 8.837,-9.86 0.05,-5.598 -3.009,-7.354 -7.022,-7.534 -0.853,-0.037 -1.877,-0.006 -2.902,0.103 -0.041,6.689 -0.059,10.032 -0.098,16.722 m 27.246,-4.985 c -0.144,-9.503 7.665,-16.481 17.112,-15.133 1.507,0.215 3.228,0.649 4.664,1.294 -0.063,-5.315 -2.825,-8.092 -6.405,-8.54 -4.351,-0.544 -8.837,1.544 -10.657,3.195 -2.216,2.011 -4.687,-7.035 -4.647,-9.947 0.022,-1.566 6.453,-5.881 15.855,-4.542 10.286,1.469 17.911,11.304 17.048,21.959 -0.235,8.371 -0.353,12.556 -0.586,20.926 -0.079,4.744 -0.12,7.117 -0.199,11.861 -0.02,0.82 -3.296,0.447 -5.396,0.131 -3.53,-0.528 -5.801,-0.835 -5.752,-3.145 0.022,-1.104 0.034,-1.655 0.055,-2.76 0.009,-0.445 0.257,-4.301 0.292,-6.014 0.111,-5.309 0.164,-7.962 0.274,-13.271 -1.431,-0.647 -2.868,-1.064 -4.31,-1.249 -3.054,-0.397 -6.392,0.783 -6.49,6.378 -0.062,3.505 0.005,9.49 -0.024,11.207 -0.032,1.76 -0.047,2.64 -0.078,4.399 -0.015,0.895 -0.282,1.612 -0.876,1.767 -0.848,0.277 -4.846,-0.051 -6.333,-0.237 -2.217,-0.281 -3.807,-0.684 -3.773,-2.163 0.111,-4.876 0.32,-9.94 0.226,-16.116 m 68.853,27.747 c -0.06,1.711 -0.977,1.64 -1.807,1.445 -0.914,-0.216 -3.814,-1.111 -5.062,-1.393 -1.579,-0.355 -4.909,-1.078 -5.162,-1.058 -2.353,0.17 -10.757,-2.345 -15.025,-3.122 -0.752,-0.136 -1.323,-0.837 -1.28,-2.401 0.143,-5.483 0.216,-8.224 0.361,-13.705 0.064,-2.385 0.205,-4.527 0.251,-6.316 l 0.313,-14.986 c 0.07,-2.681 0.105,-4.023 0.177,-6.705 0.034,-1.266 -0.056,-4.349 0.016,-7.104 0.023,-0.821 0.806,-0.704 1.986,-0.765 1.01,-0.053 2.465,0.456 3.822,0.714 1.273,0.243 2.467,0.324 3.823,0.594 1.018,0.203 1.406,0.233 1.576,1.513 0.168,1.256 -0.227,13.36 -0.281,15.145 -0.134,3.299 -0.197,4.948 -0.331,8.245 -0.195,6.58 -0.294,9.871 -0.489,16.451 3.513,0.784 7.692,1.692 8.525,1.878 1.606,0.324 2.407,0.489 4.008,0.827 2.918,0.668 4.574,1.296 4.538,2.335 -0.042,1.191 -0.146,1.624 -0.28,3.234 -0.158,1.905 0.365,3.91 0.321,5.174 M 23.887,-51.542 c -3.424,-2.803 -7.033,-3.671 -9.371,-3.296 -5.28,0.849 -7.606,7.147 -7.486,12.711 0.135,6.138 1.102,19.26 8.581,18.83 3.274,-0.189 6.545,-3.995 7.492,-4.132 1.547,-0.223 5.552,5.959 5.612,9.016 0.033,1.564 -6.593,5.461 -11.296,6.198 -6.242,0.979 -11.476,-0.053 -15.023,-3.697 -5.825,-5.986 -6.804,-15.972 -6.97,-24.028 -0.209,-10.183 3.578,-16.739 7.137,-20.092 2.541,-2.415 6.994,-5.378 11.683,-6.133 8.598,-1.38 15.134,2.064 15.178,4.374 0.061,3.133 -3.063,12.274 -5.537,10.249 m 37.124,6.426 c 4.192,2.029 6.969,5.759 6.954,10.777 -0.035,11.277 -9.736,17.287 -20.185,18.309 -5.574,0.543 -7.661,0.183 -8.779,0.089 -0.774,-0.064 -1.38,-0.142 -1.385,-0.441 -0.105,-6.115 -0.157,-9.173 -0.263,-15.289 -0.041,-2.388 0.008,-4.559 -0.022,-6.35 -0.139,-5.993 -0.206,-8.988 -0.345,-14.981 -0.045,-2.685 -0.069,-4.028 -0.114,-6.713 -0.022,-1.267 -0.25,-4.305 -0.297,-7.064 -0.015,-0.821 0.771,-0.913 1.986,-1.349 4.956,-1.598 13.963,-3.185 20.534,-1.725 6.655,1.477 11.253,6.044 11.305,13.135 0.042,5.598 -3.328,9.399 -9.389,11.602 m -12.278,17.117 c 0.002,0.12 0.004,0.181 0.006,0.299 0.692,0.085 1.384,0.096 2.246,0.02 2.418,-0.213 5.679,-2.336 5.613,-8.082 -0.048,-4.178 -3.202,-6.629 -6.93,-6.291 -0.452,0.04 -0.676,0.061 -1.127,0.103 0.078,5.581 0.117,8.371 0.192,13.951 m 2.886,-31.108 c -1.046,0.089 -2.177,0.338 -3.22,0.586 0.031,2.237 0.046,3.356 0.078,5.595 0.017,1.282 0.025,1.926 0.044,3.208 1.043,-0.022 2.087,-0.042 3.216,-0.138 4.432,-0.381 6.857,-1.739 6.818,-5.246 -0.037,-3.357 -3.189,-4.328 -6.936,-4.005 m 56.779,-7.311 c 0.128,1.912 0.424,3.296 0.418,4.564 -0.007,1.717 -0.969,1.842 -1.841,1.822 -0.962,-0.023 -4.018,-0.301 -5.329,-0.318 -3.039,-0.067 -4.56,-0.09 -7.601,-0.113 -1.571,0.004 -2.882,0.088 -4.629,0.109 0.001,1.822 0.003,2.732 0.007,4.554 0.001,0.598 0.001,0.895 0.003,1.492 1.57,0.057 3.139,0.121 3.75,0.12 2.791,-0.042 4.185,-0.052 6.976,-0.056 3.054,0.029 4.623,-0.084 4.621,0.961 -0.004,1.194 -0.093,1.79 0.077,3.433 0.169,1.648 -0.007,1.869 -0.01,3.138 -0.005,1.718 -0.962,1.848 -1.831,1.834 -1.947,0.002 -2.921,0.007 -4.87,0.025 -0.262,0 -4.785,-0.018 -8.784,0.103 0.009,5.256 0.014,7.883 0.024,13.14 0,0.537 10e-4,0.805 10e-4,1.343 3.725,0.031 8.227,0.042 9.093,0.049 1.662,-0.02 2.494,-0.027 4.156,-0.032 3.032,0.044 4.589,0.313 4.585,1.355 -0.005,1.195 -0.038,3.318 0.07,4.931 0.129,1.914 0.424,2.176 0.419,3.444 -0.005,1.717 -0.955,1.843 -1.82,1.827 -0.948,-0.021 -3.967,-0.294 -5.261,-0.308 -1.641,-0.019 -3.145,0.014 -4.23,0.048 -2.42,0.074 -8.371,0.182 -12.773,0.285 -4.745,0.109 -5.523,-0.066 -5.532,-1.71 -0.022,-4.476 -0.033,-6.716 -0.055,-11.195 0.013,-4.122 0.018,-6.183 0.033,-10.306 -0.062,-5.284 -0.092,-7.927 -0.155,-13.211 -0.099,-5.909 -0.15,-8.864 -0.25,-14.772 -0.008,-1.568 3.499,-1.239 6.477,-1.305 6.134,-0.104 9.204,-0.111 15.338,-0.03 0.964,0.007 4.208,-0.029 6.485,0.018 1.754,0.037 2.892,0.292 2.886,1.86 -0.003,0.672 -0.558,1.288 -0.448,2.901 m 40.477,44.939 c -0.024,1.374 -0.035,2.06 -0.056,3.432 -0.027,1.716 -0.976,1.764 -1.835,1.676 -0.946,-0.098 -3.955,-0.623 -5.243,-0.737 -8.43,-0.755 -17.231,-0.909 -25.418,-1.483 -1.171,-0.082 -1.813,-0.146 -1.806,-1.192 0.014,-2.464 0.064,-3.771 0.039,-6.793 -0.011,-1.178 0.444,-1.926 1.222,-1.894 4.152,0.169 6.228,0.274 10.377,0.529 0.028,-3.077 0.044,-4.614 0.07,-7.689 0.023,-2.388 0.129,-4.546 0.146,-6.339 0.013,-1.417 -0.061,-2.842 -0.048,-4.259 0.057,-6.359 0.087,-9.538 0.145,-15.899 0.012,-1.269 -0.136,-4.338 -0.109,-7.1 0.014,-1.567 2.985,-0.939 5.96,-0.723 1.311,0.096 2.538,0.039 3.937,0.152 1.05,0.084 1.45,0.074 1.646,1.329 0.195,1.236 0.084,7.254 0.062,9.044 -0.13,7.489 -0.194,11.235 -0.322,18.722 -0.051,4.03 -0.076,6.045 -0.125,10.073 -0.014,0.971 -0.03,2.314 -0.13,3.426 0.933,0.078 1.399,0.118 2.33,0.201 1.659,0.116 2.487,0.177 4.144,0.307 3.018,0.291 4.998,0.732 4.981,1.777 -0.018,1.193 0.058,1.799 0.033,3.44 m 40.162,-29.845 -0.281,10.127 c 0.048,8.156 -0.807,19.213 -6.53,25.162 -2.918,3.034 -6.367,4.214 -11.157,3.484 -6.674,-1.015 -9.779,-4.564 -12.214,-8.136 -5.193,-7.611 -5.237,-16.908 -5.504,-25.851 0.142,-8.234 0.213,-12.352 0.355,-20.585 0.01,-0.672 3.289,-0.385 5.592,-0.148 1.531,0.156 4.003,0.669 4.868,1.16 0.603,0.307 0.85,1.089 0.832,1.983 -0.037,1.699 -0.053,2.55 -0.088,4.249 -0.009,0.449 0.027,2.92 -0.007,4.636 -0.002,0.059 -0.002,0.088 -0.003,0.147 4.768,0.734 11.606,1.813 12.644,1.981 0.07,0.011 0.103,0.017 0.172,0.029 0.105,-4.262 0.156,-6.393 0.26,-10.655 0.016,-0.67 3.276,-0.227 5.569,0.121 1.521,0.229 3.99,0.563 4.845,1.097 0.6,0.334 0.837,1.128 0.814,2.022 -0.051,1.817 -0.076,2.725 -0.125,4.543 -0.013,0.446 0.005,2.921 -0.042,4.634 m -13.799,7.636 c -4.074,-0.65 -6.113,-0.954 -10.196,-1.519 0,0.061 0,0.091 0,0.15 -0.169,6.457 -0.49,19.166 5.767,21.098 2.542,0.785 6.293,-3.795 6.668,-19.218 0.002,-0.09 0.003,-0.134 0.005,-0.224 -0.862,-0.14 -1.639,-0.265 -2.244,-0.287" /></g><g
           transform="translate(405.2822,483.5323)"
           id="g26"><path
             id="path28"
             style="fill:#ffffff;fill-opacity:1;fill-rule:nonzero;stroke:none"
             d="M 0,0 C -5.493,8.809 -12.497,16.793 -20.599,23.675 -28.975,15.141 -78.807,-42.205 -89.93,-61.475 -69.382,-44.702 -24.58,-15.555 0,0" /></g><g
           transform="translate(292.106,426.1324)"
           id="g30"><path
             id="path32"
             style="fill:#ffffff;fill-opacity:1;fill-rule:nonzero;stroke:none"
             d="m 0,0 c 5.493,26.318 22.403,81.211 31.603,108.19 -14.693,2.064 -28.969,1.514 -43.661,-0.963 -2.334,-0.414 -4.669,-0.827 -6.866,-1.377 C -15.628,68.823 -11.535,35.65 0,0" /></g><g
           transform="translate(203.1743,490.9752)"
           id="g34"><path
             id="path36"
             style="fill:#ffffff;fill-opacity:1;fill-rule:nonzero;stroke:none"
             d="M 0,0 C -4.796,-5.885 -12.795,-18.599 -15.404,-25.342 9.45,-38.969 42.39,-58.956 66.558,-73.959 57.118,-59.685 17.576,-17.205 0,0" /></g><g
           transform="translate(377.9551,512.5739)"
           id="g38"><path
             id="path40"
             style="fill:#ffffff;fill-opacity:1;fill-rule:nonzero;stroke:none"
             d="M 0,0 C -11.81,8.809 -26.509,15.416 -41.202,19.271 -52.736,-15.416 -64.146,-50.654 -71.974,-86.441 -68.128,-79.834 -28.225,-24.088 0,0" /></g><g
           transform="translate(316.2822,409.1974)"
           id="g42"><path
             id="path44"
             style="fill:#ffffff;fill-opacity:1;fill-rule:nonzero;stroke:none"
             d="M 0,0 C 35.153,4.543 71.562,16.247 103.692,30.837 102.594,42.813 99.298,54.512 93.943,65.524 83.369,58.917 18.4,16.519 0,0" /></g><g
           transform="translate(278.6987,425.4283)"
           id="g46"><path
             id="path48"
             style="fill:#ffffff;fill-opacity:1;fill-rule:nonzero;stroke:none"
             d="M 0,0 C -13.457,45.973 -18.55,102.979 -18.55,103.667 -33.755,99.958 -55.632,86.733 -68.951,73.519 -45.882,51.083 -21.559,24.088 0,0" /></g><g
           transform="translate(229.2402,429.299)"
           id="g50"><path
             id="path52"
             style="fill:#ffffff;fill-opacity:1;fill-rule:nonzero;stroke:none"
             d="M 0,0 C -14.83,8.947 -29.936,17.618 -45.04,26.152 -46.963,18.72 -48.199,11.011 -48.747,3.302 -24.304,-9.637 6.472,-18.587 35.171,-21.34 24.323,-14.319 10.986,-6.746 0,0" /></g><g
           transform="translate(152.7822,446.2452)"
           id="g54"><path
             id="path56"
             style="fill:#ffffff;fill-opacity:1;fill-rule:nonzero;stroke:none"
             d="M 0,0 C 8.193,-2.953 16.364,-1.105 18.251,4.128 20.138,9.361 15.026,15.998 6.833,18.952 -1.36,21.906 -9.531,20.059 -11.418,14.824 -13.305,9.59 -8.193,2.953 0,0" /></g><g
           transform="translate(170.2651,488.2775)"
           id="g58"><path
             id="path60"
             style="fill:#ffffff;fill-opacity:1;fill-rule:nonzero;stroke:none"
             d="M 0,0 C 7.486,-4.45 15.86,-4.182 18.702,0.601 21.545,5.382 17.78,12.866 10.294,17.318 2.808,21.768 -5.565,21.498 -8.407,16.717 -11.251,11.935 -7.486,4.45 0,0" /></g><g
           transform="translate(213.4785,534.4117)"
           id="g62"><path
             id="path64"
             style="fill:#ffffff;fill-opacity:1;fill-rule:nonzero;stroke:none"
             d="M 0,0 C 3.958,-7.758 11.182,-11.999 16.138,-9.471 21.095,-6.944 21.903,1.396 17.947,9.153 13.99,16.911 6.764,21.152 1.809,18.624 -3.147,16.096 -3.958,7.758 0,0" /></g><g
           transform="translate(288.3745,558.7218)"
           id="g66"><path
             id="path68"
             style="fill:#ffffff;fill-opacity:1;fill-rule:nonzero;stroke:none"
             d="m 0,0 c 0.175,-8.708 4.828,-15.676 10.39,-15.563 5.563,0.113 9.928,7.262 9.753,15.97 C 19.965,9.115 15.315,16.083 9.752,15.97 4.19,15.858 -0.176,8.708 0,0" /></g><g
           transform="translate(379.8145,538.3439)"
           id="g70"><path
             id="path72"
             style="fill:#ffffff;fill-opacity:1;fill-rule:nonzero;stroke:none"
             d="M 0,0 C 4.161,7.65 3.574,16.006 -1.312,18.666 -6.198,21.324 -13.534,17.277 -17.697,9.627 -21.859,1.978 -21.271,-6.379 -16.385,-9.039 -11.497,-11.697 -4.161,-7.65 0,0" /></g><g
           transform="translate(421.5781,502.9708)"
           id="g74"><path
             id="path76"
             style="fill:#ffffff;fill-opacity:1;fill-rule:nonzero;stroke:none"
             d="M 0,0 C 6.848,5.38 9.615,13.288 6.178,17.662 2.742,22.038 -5.597,21.223 -12.444,15.843 -19.295,10.463 -22.061,2.555 -18.625,-1.821 -15.187,-6.195 -6.849,-5.38 0,0" /></g><g
           transform="translate(442.0078,457.0031)"
           id="g78"><path
             id="path80"
             style="fill:#ffffff;fill-opacity:1;fill-rule:nonzero;stroke:none"
             d="M 0,0 C 8.301,2.632 13.669,9.065 11.986,14.368 10.306,19.672 2.212,21.835 -6.091,19.203 -14.392,16.57 -19.758,10.137 -18.077,4.834 -16.395,-0.469 -8.301,-2.633 0,0" /></g></g></g></g></svg>
